<svg width="64" height="64" viewBox="0 0 64 64" fill="none" xmlns="http://www.w3.org/2000/svg">
<g id="Group">
<path id="Vector" d="M32.1671 0H31.8343C28.9575 0 26.5607 1.37881e-07 24.6599 0.246747C22.6503 0.505831 20.8359 1.07952 19.3799 2.48289C17.9207 3.88935 17.3255 5.63817 17.0567 7.57204C16.8007 9.40722 16.8007 11.7205 16.8007 14.4902V14.7308C18.2631 14.6845 19.8567 14.666 21.6007 14.6568V14.6506C21.6007 11.6773 21.6071 9.67865 21.8151 8.18891C22.0135 6.76703 22.3559 6.15633 22.7751 5.75537C23.1911 5.35441 23.8215 5.02438 25.2967 4.83007C26.8423 4.63267 28.9159 4.6265 32.0007 4.6265C35.0855 4.6265 37.1591 4.63267 38.7047 4.83315C40.1799 5.02438 40.8135 5.35441 41.2295 5.75846C41.6455 6.15942 41.9879 6.76703 42.1895 8.18891C42.3943 9.67865 42.4007 11.6773 42.4007 14.6506V14.6568C44.0009 14.6602 45.6011 14.6849 47.2007 14.7308V14.4902C47.2007 11.7205 47.2007 9.40723 46.9447 7.57513C46.6759 5.63817 46.0807 3.88935 44.6215 2.48597C43.1655 1.07952 41.3511 0.505831 39.3415 0.246747C37.4407 1.37881e-07 35.0407 0 32.1671 0Z" fill="#111111"/>
<path id="Vector_2" opacity="0.5" fill-rule="evenodd" clip-rule="evenodd" d="M0 39.3253C0 27.6943 -3.8147e-07 21.8772 3.7504 18.2655C7.4976 14.6506 13.5328 14.6506 25.6 14.6506H38.4C50.4672 14.6506 56.5024 14.6506 60.2496 18.2655C64 21.8772 64 27.6943 64 39.3253C64 50.9564 64 56.7734 60.2496 60.3852C56.5024 64 50.4672 64 38.4 64H25.6C13.5328 64 7.4976 64 3.7504 60.3852C-3.8147e-07 56.7734 0 50.9564 0 39.3253ZM34.4 34.6988C34.4 34.0853 34.1471 33.4969 33.6971 33.0631C33.247 32.6293 32.6365 32.3856 32 32.3856C31.3635 32.3856 30.753 32.6293 30.3029 33.0631C29.8529 33.4969 29.6 34.0853 29.6 34.6988V37.0121H27.2C26.5635 37.0121 25.953 37.2558 25.5029 37.6896C25.0529 38.1234 24.8 38.7118 24.8 39.3253C24.8 39.9388 25.0529 40.5272 25.5029 40.961C25.953 41.3949 26.5635 41.6386 27.2 41.6386H29.6V43.9518C29.6 44.5653 29.8529 45.1537 30.3029 45.5875C30.753 46.0214 31.3635 46.2651 32 46.2651C32.6365 46.2651 33.247 46.0214 33.6971 45.5875C34.1471 45.1537 34.4 44.5653 34.4 43.9518V41.6386H36.8C37.4365 41.6386 38.047 41.3949 38.4971 40.961C38.9471 40.5272 39.2 39.9388 39.2 39.3253C39.2 38.7118 38.9471 38.1234 38.4971 37.6896C38.047 37.2558 37.4365 37.0121 36.8 37.0121H34.4V34.6988Z" fill="#2BADE4"/>
<path id="Vector_3" fill-rule="evenodd" clip-rule="evenodd" d="M31.9998 51.6626C35.3946 51.6626 38.6503 50.3628 41.0508 48.0491C43.4513 45.7354 44.7998 42.5973 44.7998 39.3253C44.7998 36.0532 43.4513 32.9151 41.0508 30.6014C38.6503 28.2877 35.3946 26.9879 31.9998 26.9879C28.6051 26.9879 25.3493 28.2877 22.9489 30.6014C20.5484 32.9151 19.1998 36.0532 19.1998 39.3253C19.1998 42.5973 20.5484 45.7354 22.9489 48.0491C25.3493 50.3628 28.6051 51.6626 31.9998 51.6626ZM34.3998 34.6988C34.3998 34.0852 34.147 33.4969 33.6969 33.063C33.2468 32.6292 32.6363 32.3855 31.9998 32.3855C31.3633 32.3855 30.7529 32.6292 30.3028 33.063C29.8527 33.4969 29.5998 34.0852 29.5998 34.6988V37.012H27.1998C26.5633 37.012 25.9529 37.2557 25.5028 37.6895C25.0527 38.1234 24.7998 38.7117 24.7998 39.3253C24.7998 39.9388 25.0527 40.5272 25.5028 40.961C25.9529 41.3948 26.5633 41.6385 27.1998 41.6385H29.5998V43.9518C29.5998 44.5653 29.8527 45.1537 30.3028 45.5875C30.7529 46.0213 31.3633 46.265 31.9998 46.265C32.6363 46.265 33.2468 46.0213 33.6969 45.5875C34.147 45.1537 34.3998 44.5653 34.3998 43.9518V41.6385H36.7998C37.4363 41.6385 38.0468 41.3948 38.4969 40.961C38.947 40.5272 39.1998 39.9388 39.1998 39.3253C39.1998 38.7117 38.947 38.1234 38.4969 37.6895C38.0468 37.2557 37.4363 37.012 36.7998 37.012H34.3998V34.6988Z" fill="#EE0D0D"/>
</g>
</svg>
